<?xml version="1.0" standalone="no"?>
<!DOCTYPE svg PUBLIC "-//W3C//DTD SVG 20010904//EN"
 "http://www.w3.org/TR/2001/REC-SVG-20010904/DTD/svg10.dtd">
<svg version="1.0" xmlns="http://www.w3.org/2000/svg"
 width="32.000000pt" height="32.000000pt" viewBox="0 0 32.000000 32.000000"
 preserveAspectRatio="xMidYMid meet">

<g transform="translate(0.000000,32.000000) scale(0.100000,-0.100000)"
fill="#000000" stroke="none">
<path d="M110 232 c0 -5 6 -16 13 -26 11 -16 13 -15 15 8 1 17 -3 26 -13 26
-8 0 -15 -4 -15 -8z"/>
<path d="M154 215 c15 -67 12 -89 -13 -102 -31 -17 -41 -9 -41 32 0 19 -3 36
-7 38 -5 3 -6 -20 -5 -50 4 -54 4 -55 30 -48 15 3 36 15 46 25 19 19 20 18 53
-28 41 -58 44 -46 3 15 -16 24 -30 55 -30 69 0 14 -10 38 -21 52 l-22 27 7
-30z"/>
<path d="M220 176 c0 -2 8 -10 18 -17 15 -13 16 -12 3 4 -13 16 -21 21 -21 13z"/>
<path d="M275 159 c-4 -6 -5 -12 -2 -15 2 -3 7 2 10 11 7 17 1 20 -8 4z"/>
</g>
</svg>
