<?xml version="1.0" standalone="no"?>
<!DOCTYPE svg PUBLIC "-//W3C//DTD SVG 20010904//EN"
 "http://www.w3.org/TR/2001/REC-SVG-20010904/DTD/svg10.dtd">
<svg version="1.0" xmlns="http://www.w3.org/2000/svg"
 width="32.000000pt" height="32.000000pt" viewBox="0 0 32.000000 32.000000"
 preserveAspectRatio="xMidYMid meet">

<g transform="translate(0.000000,32.000000) scale(0.100000,-0.100000)"
fill="#000000" stroke="none">
<path d="M260 214 c0 -57 -2 -64 -20 -64 -11 0 -20 -7 -20 -15 0 -10 -10 -15
-30 -15 -20 0 -30 -5 -30 -15 0 -10 -10 -15 -27 -15 -35 0 -27 -6 20 -13 28
-4 37 -2 37 9 0 9 11 14 30 14 21 0 30 5 30 16 0 12 6 15 23 11 12 -4 29 -2
37 3 13 9 13 11 0 20 -8 5 -21 8 -27 5 -9 -3 -13 9 -13 40 0 35 4 45 20 50 24
7 19 20 -10 28 -19 5 -20 0 -20 -59z m-23 -96 c-3 -8 -6 -5 -6 6 -1 11 2 17 5
13 3 -3 4 -12 1 -19z m-60 -30 c-3 -8 -6 -5 -6 6 -1 11 2 17 5 13 3 -3 4 -12
1 -19z"/>
<path d="M84 245 c-4 -9 -4 -19 0 -22 3 -3 -3 -13 -15 -21 -11 -8 -18 -19 -16
-26 3 -7 -4 -13 -16 -13 -19 -2 -37 -19 -37 -36 0 -4 12 -13 26 -19 32 -15 45
1 42 49 -1 18 2 36 6 40 5 4 7 3 3 -2 -3 -6 -2 -17 4 -25 7 -12 9 -10 9 8 0
12 6 22 13 22 7 0 12 -13 12 -30 0 -20 -4 -29 -12 -25 -7 2 -13 -2 -13 -11 0
-8 -7 -26 -16 -39 -15 -23 -15 -25 0 -25 10 0 23 15 31 33 8 17 14 28 15 22 0
-5 5 -3 11 5 8 12 9 10 4 -7 -4 -14 -2 -23 4 -23 17 0 13 40 -4 46 -22 9 -18
19 10 32 33 15 32 33 -2 30 -23 -3 -27 1 -28 21 0 28 -22 40 -31 16z m26 -5
c0 -5 -4 -10 -10 -10 -5 0 -10 5 -10 10 0 6 5 10 10 10 6 0 10 -4 10 -10z
m-60 -100 c23 -15 -2 -35 -27 -21 -10 6 -13 11 -5 11 7 0 10 5 7 10 -8 13 5
13 25 0z"/>
<path d="M120 57 c0 -12 -8 -17 -27 -16 l-28 1 25 8 c24 9 24 9 -5 7 -40 -3
-38 -21 3 -25 22 -2 34 2 38 13 4 9 4 19 0 22 -3 4 -6 -1 -6 -10z"/>
</g>
</svg>
