<?xml version="1.0" standalone="no"?>
<!DOCTYPE svg PUBLIC "-//W3C//DTD SVG 20010904//EN"
 "http://www.w3.org/TR/2001/REC-SVG-20010904/DTD/svg10.dtd">
<svg version="1.0" xmlns="http://www.w3.org/2000/svg"
 width="512.000000pt" height="512.000000pt" viewBox="0 0 512.000000 512.000000"
 preserveAspectRatio="xMidYMid meet">

<g transform="translate(0.000000,512.000000) scale(0.100000,-0.100000)"
fill="#000000" stroke="none">
<path d="M1375 5106 c-93 -30 -166 -90 -212 -178 l-28 -53 -3 -352 c-3 -343
-2 -353 18 -373 19 -19 32 -20 249 -20 252 0 261 2 275 63 5 22 1 34 -23 57
l-29 30 -171 0 -171 0 0 270 c0 249 2 274 20 309 34 67 106 111 180 111 60 -1
147 -63 169 -123 23 -59 15 -77 -69 -163 -48 -49 -80 -90 -80 -102 0 -35 43
-75 79 -75 27 0 45 13 109 76 83 83 102 90 165 63 59 -24 117 -111 117 -176 0
-41 -26 -97 -62 -136 -48 -52 -54 -92 -20 -126 46 -46 109 -18 174 78 106 156
59 371 -104 475 l-52 33 55 26 c46 21 68 25 154 25 89 0 106 -3 157 -28 74
-36 139 -101 175 -175 l28 -57 3 -335 3 -335 -60 -17 c-38 -12 -83 -36 -126
-69 l-66 -50 -53 12 c-30 6 -91 10 -139 7 -71 -4 -97 -10 -152 -37 -81 -40
-161 -118 -195 -189 l-25 -52 -206 0 c-193 0 -208 -1 -232 -21 l-27 -20 -2
-176 -3 -176 -57 -13 c-250 -57 -386 -295 -322 -564 40 -170 162 -325 320
-408 79 -40 82 -43 88 -84 12 -74 57 -209 102 -307 61 -131 142 -247 247 -358
116 -121 232 -208 374 -279 l113 -57 0 -37 0 -37 -92 -33 c-317 -110 -608
-326 -819 -604 -72 -96 -159 -245 -159 -273 0 -13 11 -35 25 -48 l24 -25 1521
0 1521 0 24 25 c14 13 25 35 25 48 0 53 -161 291 -295 435 -171 184 -467 373
-707 452 -68 22 -68 22 -68 59 l0 38 113 57 c268 135 495 367 621 637 45 98
90 233 102 307 6 41 9 44 84 83 199 103 325 294 338 510 6 103 -10 183 -41
204 -30 21 -71 19 -93 -6 -16 -18 -19 -38 -19 -143 -1 -102 -4 -130 -23 -178
-49 -121 -150 -225 -264 -269 -109 -43 -107 -41 -129 -164 -38 -218 -163 -451
-333 -621 -126 -125 -273 -220 -429 -279 -27 -10 -55 -28 -62 -39 -8 -13 -15
-64 -17 -131 -4 -92 -9 -120 -30 -167 -34 -72 -103 -142 -176 -176 -49 -23
-71 -27 -156 -27 -95 -1 -99 -2 -122 -29 -30 -34 -30 -58 -1 -92 21 -24 32
-28 103 -32 100 -5 175 10 262 54 82 40 177 134 217 214 15 30 28 56 30 58 5
6 156 -54 240 -95 241 -120 492 -341 630 -555 l17 -28 -1361 0 -1362 0 32 48
c145 212 375 414 603 529 73 37 246 107 251 101 1 -2 10 -19 20 -38 28 -56 55
-80 91 -80 58 0 95 76 60 125 -27 39 -46 128 -46 215 0 102 -9 120 -77 145
-387 145 -678 488 -762 899 -10 51 -24 102 -30 114 -6 12 -33 27 -66 37 -125
40 -246 155 -296 282 -18 45 -23 79 -23 153 -1 88 1 99 29 149 29 53 83 102
135 123 14 6 60 14 103 18 121 11 121 11 125 225 l3 175 1209 0 1209 0 3 -175
c4 -217 0 -211 141 -226 108 -11 132 -5 147 37 12 30 4 68 -16 85 -8 7 -38 17
-67 24 l-52 11 -3 177 -2 176 -27 20 c-24 20 -39 21 -233 21 l-207 0 -24 52
c-33 71 -113 149 -194 189 -55 27 -81 33 -152 37 -47 3 -109 -1 -138 -7 l-53
-12 -66 50 c-41 31 -90 58 -129 69 l-62 20 -3 113 c-4 152 10 257 42 322 33
68 106 140 176 175 49 24 66 27 155 27 79 0 109 -4 144 -20 l43 -20 -50 -33
c-58 -37 -111 -105 -137 -174 -25 -68 -18 -196 15 -263 32 -66 99 -131 168
-163 l57 -27 342 -3 343 -3 26 26 25 25 -3 338 c-4 397 -5 400 -102 498 -81
82 -147 108 -261 102 -62 -4 -92 -11 -133 -32 -63 -32 -123 -90 -152 -146 -12
-23 -24 -40 -28 -38 -4 2 -31 16 -59 31 -141 73 -326 76 -466 6 -23 -12 -65
-39 -94 -60 l-52 -39 -11 42 c-5 24 -27 77 -47 118 -64 129 -180 223 -327 265
-126 37 -316 6 -418 -66 -19 -14 -33 -19 -35 -12 -2 6 -21 35 -41 64 -84 120
-244 177 -377 135z m2333 -432 c20 -8 49 -27 65 -42 49 -47 57 -99 57 -379 l0
-253 -257 0 c-149 0 -274 5 -296 11 -47 13 -106 63 -123 106 -17 39 -18 111
-3 150 21 56 80 103 147 118 32 7 38 3 127 -84 60 -59 100 -91 114 -91 13 0
36 14 53 30 43 43 33 69 -68 170 -49 50 -84 94 -84 105 0 11 9 38 19 60 45 97
152 140 249 99z m-1022 -937 c29 -15 70 -49 99 -82 54 -64 61 -65 165 -26 108
40 211 20 289 -58 l46 -46 -362 -3 c-200 -1 -526 -1 -725 0 l-363 3 46 46 c78
78 181 98 289 58 104 -39 111 -38 165 26 45 53 94 86 155 106 46 15 142 3 196
-24z"/>
<path d="M1102 2817 c-31 -33 -27 -63 14 -122 25 -37 38 -69 43 -109 9 -67 35
-99 80 -99 17 0 40 8 52 19 19 17 21 27 16 89 -5 83 -32 148 -82 204 -45 49
-88 55 -123 18z"/>
<path d="M3903 2808 c-52 -54 -86 -133 -91 -213 -4 -62 -2 -72 17 -89 27 -25
77 -25 102 0 11 12 23 44 29 79 7 41 21 76 45 110 41 60 44 93 12 123 -34 33
-77 29 -114 -10z"/>
<path d="M1837 2500 c-100 -36 -197 -111 -197 -154 0 -28 26 -65 54 -75 27
-11 57 1 104 39 103 82 251 80 361 -5 56 -44 100 -47 130 -9 12 15 21 35 21
45 0 34 -70 98 -148 136 -68 34 -83 38 -171 40 -77 3 -108 -1 -154 -17z"/>
<path d="M3015 2503 c-72 -26 -137 -67 -174 -108 -36 -42 -39 -63 -10 -99 30
-38 74 -35 130 9 110 85 258 87 361 5 68 -55 110 -56 144 -6 35 54 -13 115
-136 174 -67 33 -84 37 -170 39 -72 3 -107 -1 -145 -14z"/>
<path d="M2280 1770 c-12 -12 -20 -33 -20 -54 0 -28 8 -41 42 -71 158 -135
391 -135 546 0 34 30 42 43 42 71 0 77 -71 96 -145 39 -45 -33 -127 -65 -170
-65 -43 0 -125 32 -170 65 -52 40 -95 45 -125 15z"/>
</g>
</svg>
