<?xml version="1.0" standalone="no"?>
<!DOCTYPE svg PUBLIC "-//W3C//DTD SVG 20010904//EN"
 "http://www.w3.org/TR/2001/REC-SVG-20010904/DTD/svg10.dtd">
<svg version="1.0" xmlns="http://www.w3.org/2000/svg"
 width="32.000000pt" height="32.000000pt" viewBox="0 0 32.000000 32.000000"
 preserveAspectRatio="xMidYMid meet">

<g transform="translate(0.000000,32.000000) scale(0.100000,-0.100000)"
fill="#000000" stroke="none">
<path d="M95 292 c-57 -31 -72 -62 -31 -62 14 0 26 -4 26 -10 0 -5 6 -10 13
-10 9 0 12 -9 9 -28 -2 -20 4 -34 22 -51 l26 -24 25 23 c34 32 31 75 -5 76
-65 3 -67 4 -47 15 10 6 29 8 42 5 13 -3 51 -3 84 0 59 7 61 8 61 35 0 26 -4
29 -30 29 -16 0 -30 -4 -30 -10 0 -5 7 -7 15 -4 10 4 15 0 15 -14 0 -13 -7
-21 -17 -21 -10 0 -32 -3 -49 -7 -21 -4 -42 0 -65 12 l-34 18 35 7 c32 6 33 6
7 8 -16 0 -40 -8 -54 -19 -26 -20 -63 -27 -63 -12 0 5 23 21 51 36 47 26 54
27 96 17 25 -7 47 -10 50 -8 4 4 -77 27 -94 27 -4 0 -30 -13 -58 -28z m212
-44 c-3 -7 -5 -2 -5 12 0 14 2 19 5 13 2 -7 2 -19 0 -25z m-173 -7 c3 -5 -1
-12 -10 -15 -20 -8 -29 -1 -19 13 8 13 22 14 29 2z m64 -64 c8 -42 -48 -62
-71 -26 -17 27 -2 47 35 45 23 -1 34 -7 36 -19z"/>
<path d="M187 99 c-10 -6 -29 -8 -42 -5 -13 3 -51 3 -84 0 -59 -7 -61 -8 -61
-35 0 -26 4 -29 30 -29 25 0 30 4 30 24 0 38 48 48 101 21 18 -10 27 -20 22
-28 -4 -6 6 -2 21 11 28 22 66 30 66 14 0 -5 -23 -21 -50 -36 -37 -20 -59 -26
-83 -22 l-32 5 32 -11 c27 -9 38 -7 84 18 60 32 77 64 35 64 -14 0 -26 5 -26
10 0 13 -20 12 -43 -1z m33 -8 c0 -14 -18 -23 -31 -15 -8 4 -7 9 2 15 18 11
29 11 29 0z m-203 -43 c-3 -7 -5 -2 -5 12 0 14 2 19 5 13 2 -7 2 -19 0 -25z
m33 12 c0 -11 -4 -20 -10 -20 -5 0 -10 9 -10 20 0 11 5 20 10 20 6 0 10 -9 10
-20z"/>
<path d="M138 43 c6 -2 18 -2 25 0 6 3 1 5 -13 5 -14 0 -19 -2 -12 -5z"/>
</g>
</svg>
